<svg viewBox="0 0 50 50" fill="none" xmlns="http://www.w3.org/2000/svg">
<path fill-rule="evenodd" clip-rule="evenodd" d="M0 0H1.04897H2H48H48.9516H50V1.04702C50 1.04767 50 1.04831 50 1.04895V48.951V50H48.951H48H35.1886V33.2933H41.4698C41.934 33.2933 42.31 32.9167 42.31 32.4526L42.3121 25.6789C42.3121 25.456 42.2235 25.2426 42.0661 25.0847C41.9083 24.9268 41.6948 24.8382 41.4719 24.8382H35.1891V20.8752C35.1891 18.9709 35.6433 18.0037 38.1236 18.0037L41.7231 18.0022C42.1873 18.0022 42.5634 17.6261 42.5634 17.1619V10.8729C42.5634 10.4093 42.1873 10.0333 41.7242 10.0327L36.3808 10.0243C30.3786 10.0243 26.5 14.0041 26.5 20.1635V24.8382H21.1283C20.6641 24.8382 20.288 25.2148 20.288 25.6789V32.452C20.288 32.9162 20.6641 33.2923 21.1283 33.2923H26.4995V49.9995H2V50H0V48.9505V1.04895V0Z" fill="white"/>
</svg>
