<svg viewBox="0 0 50 50" fill="none" xmlns="http://www.w3.org/2000/svg">
<path fill-rule="evenodd" clip-rule="evenodd" d="M6.10352e-05 0H0V12.4699V37.2913V49.7217H6.06192e-05L6.06191e-05 49.7227H49.9604V40.251H49.9603V38.2469C49.9866 37.9186 50 37.5867 50 37.2518V12.4699C49.9982 12.1577 49.9848 11.8481 49.9603 11.5416V9.4707H49.9604V2.38419e-06L49.9603 0H40.4441H37.4306H12.5297H9.51624H6.10352e-05ZM40.4441 15.3506C40.4441 12.0358 37.8668 9.4708 34.5361 9.4708H15.4243C12.0936 9.4708 9.51626 12.0358 9.51626 15.3506V21.6644V34.3711C9.51626 37.6859 12.0936 40.2509 15.4243 40.2509H34.5361C37.8668 40.2509 40.4441 37.6859 40.4441 34.3711V21.6644V15.3506ZM36.2411 12.9633H31.6416V18.2109H36.8755V13.634V12.9238L36.2411 12.9633ZM24.979 19.3965C26.803 19.3965 28.4287 20.3041 29.4199 21.6852C30.0544 22.5928 30.4509 23.6977 30.4509 24.8815C30.4509 27.8806 27.9925 30.3271 24.979 30.3271C21.9655 30.3271 19.5071 27.8806 19.5071 24.8815C19.5071 23.6977 19.9037 22.5928 20.5381 21.6852C21.5294 20.3041 23.155 19.3965 24.979 19.3965ZM33.5051 24.8814C33.5051 23.7766 33.2672 22.5138 32.8707 21.7246H37.6685V34.3914C37.6685 36.0488 36.2014 37.5088 34.5361 37.5088H15.4242C13.7589 37.5088 12.2918 36.0488 12.2918 34.3914V21.7246H17.0896C16.6931 22.5138 16.4552 23.7371 16.4552 24.8814C16.4552 29.5772 20.2617 33.3654 24.9802 33.3654C29.6986 33.3654 33.5051 29.5378 33.5051 24.8814Z" fill="white"/>
</svg>
