<svg width="25" height="25" viewBox="0 0 25 25" fill="none" xmlns="http://www.w3.org/2000/svg">
<g opacity="0.3">
<path d="M12.4225 7.56465C13.5789 7.56465 14.2737 8.18149 14.2737 9.22201C14.2737 11.1118 10.9004 11.6327 10.9004 13.9262C10.9004 14.543 11.3041 15.2172 12.1334 15.2172C13.4057 15.2172 13.2518 14.2726 13.7148 13.5972C14.331 12.6919 17.204 11.728 17.204 9.22139C17.204 6.50419 14.7759 5.36584 12.3079 5.36584C9.95705 5.36584 7.79688 7.04314 7.79688 8.93291C7.79688 9.70365 8.37571 10.1086 9.05049 10.1086C10.9191 10.1093 9.95581 7.56465 12.4225 7.56465Z" fill="black"/>
<path d="M13.7913 18.0522C13.7913 17.1842 13.0779 16.4714 12.2106 16.4714C11.3433 16.4714 10.6299 17.1855 10.6299 18.0522C10.6299 18.9201 11.3433 19.6329 12.2106 19.6329C13.0779 19.6329 13.7913 18.9201 13.7913 18.0522Z" fill="black"/>
<path d="M25 12.5C25 5.60762 19.3924 0 12.5 0C5.60762 0 0 5.60762 0 12.5C0 19.3924 5.60762 25 12.5 25C19.3924 25 25 19.393 25 12.5ZM1.24614 12.5C1.24614 6.29486 6.29486 1.24614 12.5 1.24614C18.7051 1.24614 23.7539 6.29486 23.7539 12.5C23.7539 18.7051 18.7051 23.7539 12.5 23.7539C6.29486 23.7539 1.24614 18.7051 1.24614 12.5Z" fill="black"/>
</g>
</svg>
