<svg viewBox="0 0 50 50" fill="none" xmlns="http://www.w3.org/2000/svg">
<path fill-rule="evenodd" clip-rule="evenodd" d="M0 49.7627V0H50V49.7627H0ZM35.9698 40.0933L41.6783 12.9304C41.958 11.5998 40.6428 10.4913 39.3702 10.9848L5.93453 23.9525C4.85155 24.3726 4.91726 25.9193 6.03196 26.2469L14.5283 28.7439L17.6991 38.7576C18.0304 39.8035 19.3622 40.1206 20.1331 39.3372L24.526 34.8732L33.145 41.1699C34.1998 41.9404 35.7019 41.3679 35.9698 40.0933ZM16.3564 27.6887L34.6964 16.3683C35.1182 16.1079 35.5501 16.6857 35.1783 17.0128L19.6476 30.6809C19.4928 30.8172 19.3942 31.0057 19.3712 31.2101L18.7733 36.5002C18.7537 36.6727 18.511 36.6955 18.4594 36.5298L15.9993 28.6405C15.8866 28.2793 16.0335 27.8879 16.3564 27.6887Z" fill="white"/>
</svg>
